<svg width="8" height="14" viewBox="0 0 8 14" fill="none" xmlns="http://www.w3.org/2000/svg">
<path d="M1.91667 0.933315L7.53334 6.53332C7.60001 6.59998 7.64712 6.6722 7.67467 6.74998C7.70267 6.82776 7.71667 6.91109 7.71667 6.99998C7.71667 7.08887 7.70267 7.1722 7.67467 7.24998C7.64712 7.32776 7.60001 7.39998 7.53334 7.46665L1.91667 13.0833C1.76112 13.2389 1.56667 13.3167 1.33334 13.3167C1.10001 13.3167 0.900008 13.2333 0.733342 13.0667C0.566675 12.9 0.483342 12.7055 0.483342 12.4833C0.483342 12.2611 0.566675 12.0667 0.733342 11.9L5.63334 6.99998L0.733342 2.09998C0.577786 1.94443 0.500008 1.75287 0.500008 1.52532C0.500008 1.29732 0.583342 1.09998 0.750008 0.933315C0.916675 0.766648 1.11112 0.683315 1.33334 0.683315C1.55556 0.683315 1.75001 0.766648 1.91667 0.933315Z" fill="#18A4E1"/>
</svg>
