<svg width="8" height="14" viewBox="0 0 8 14" fill="none" xmlns="http://www.w3.org/2000/svg">
<path d="M1.91667 0.933315L7.53333 6.53332C7.6 6.59998 7.64711 6.6722 7.67467 6.74998C7.70267 6.82776 7.71667 6.91109 7.71667 6.99998C7.71667 7.08887 7.70267 7.1722 7.67467 7.24998C7.64711 7.32776 7.6 7.39998 7.53333 7.46665L1.91667 13.0833C1.76111 13.2389 1.56667 13.3167 1.33333 13.3167C1.1 13.3167 0.900001 13.2333 0.733334 13.0667C0.566668 12.9 0.483334 12.7055 0.483334 12.4833C0.483334 12.2611 0.566668 12.0667 0.733334 11.9L5.63333 6.99998L0.733334 2.09998C0.577778 1.94443 0.5 1.75287 0.5 1.52532C0.5 1.29732 0.583334 1.09998 0.75 0.933315C0.916667 0.766648 1.11111 0.683315 1.33333 0.683315C1.55556 0.683315 1.75 0.766648 1.91667 0.933315Z" fill="#18A4E1"/>
</svg>
